<?xml version="1.0" encoding="UTF-8" standalone="no"?>
<svg width="101px" height="98px" viewBox="0 0 101 98" version="1.1" xmlns="http://www.w3.org/2000/svg" xmlns:xlink="http://www.w3.org/1999/xlink" xmlns:sketch="http://www.bohemiancoding.com/sketch/ns">
    <!-- Generator: Sketch 3.0.4 (8054) - http://www.bohemiancoding.com/sketch -->
    <title>Logo 2</title>
    <desc>Created with Sketch.</desc>
    <defs></defs>
    <g id="Admin-Panel" stroke="none" stroke-width="1" fill="none" fill-rule="evenodd" sketch:type="MSPage">
        <g id="Dashboard---Overview" sketch:type="MSArtboardGroup" transform="translate(-274.000000, -198.000000)">
            <g id="Logo-2" sketch:type="MSLayerGroup" transform="translate(275.000000, 196.000000)">
                <path d="M26.3924528,99.6589844 C15,93.3695313 6.23358491,82.6585938 2.23358491,69.7367188 L2.62981132,69.4242188 L13.1430189,69.4242188 L26.3924528,99.6589844 L26.3924528,99.6589844 Z" id="Shape" fill="#2B7C6B" sketch:type="MSShapeGroup"></path>
                <path id="Shape" fill="#56C6AF" sketch:type="MSShapeGroup" d="M2.13584906,69.4246094 L2.63018868,69.4246094 L2.23396226,69.7371094 C2.2,69.6355469 2.16603774,69.5300781 2.13584906,69.4246094 L2.13584906,69.4246094 Z"></path>
                <path d="M42.0641509,69.6472656 L26.6154717,99.7839844 C26.54,99.7445313 26.4645283,99.7015625 26.3928302,99.6589844 L13.1437736,69.4246094 L41.6683019,69.4246094 C41.7962264,69.5027344 41.9320755,69.5773438 42.0641509,69.6472656 L42.0641509,69.6472656 Z" id="Shape" fill="#44967F" sketch:type="MSShapeGroup"></path>
                <path d="M97.709434,69.4246094 C93.7060377,82.6433594 84.7245283,93.5808594 73.0377358,99.8894531 L72.9773585,99.7679688 L86.5022642,69.4242188 L97.709434,69.4242188 L97.709434,69.4246094 Z" id="Shape" fill="#44967F" sketch:type="MSShapeGroup"></path>
                <path d="M86.5018868,69.4246094 L72.9769811,99.7683594 L57.5845283,69.7488281 C57.7845283,69.6433594 57.9811321,69.5378906 58.1769811,69.4246094 L86.5018868,69.4246094 L86.5018868,69.4246094 Z" id="Shape" fill="#2B7C6B" sketch:type="MSShapeGroup"></path>
                <path d="M99.9962264,53.9011719 C99.9962264,59.3113281 99.1962264,64.5261719 97.7090566,69.4246094 L97.2335849,69.4246094 L89.305283,63.1433594 L98.6901887,42.0921875 C99.5433962,45.8855469 99.9962264,49.8382813 99.9962264,53.9011719 L99.9962264,53.9011719 Z" id="Shape" fill="#44967F" sketch:type="MSShapeGroup"></path>
                <path d="M98.690566,42.0921875 L89.3056604,63.1433594 L62.7207547,42.0808594 L98.6867925,42.0808594 C98.6867925,42.0847656 98.6867925,42.0886719 98.690566,42.0921875 L98.690566,42.0921875 Z" id="Shape" fill="#22BC9E" sketch:type="MSShapeGroup"></path>
                <path d="M37.1358491,42.0808594 L10.4339623,63.2410156 L1.15849057,42.0808594 L37.1358491,42.0808594 Z" id="Shape" fill="#56C6AF" sketch:type="MSShapeGroup"></path>
                <path d="M98.6867925,42.0808594 L98.6758491,42.0808594 L74.6645283,22.4910156 L80.5286792,12.8742188 C89.4867925,20.0457031 96.0301887,30.2882813 98.6867925,42.0808594 L98.6867925,42.0808594 Z" id="Shape" fill="#2B7C6B" sketch:type="MSShapeGroup"></path>
                <path d="M98.6754717,42.0808594 L62.7207547,42.0808594 L74.6641509,22.4910156 L98.6754717,42.0808594 Z" id="Shape" fill="#44967F" sketch:type="MSShapeGroup"></path>
                <path d="M37.1358491,42.0808594 L1.15849057,42.0808594 L24.709434,22.6121094 L37.1358491,42.0808594 Z" id="Shape" fill="#44967F" sketch:type="MSShapeGroup"></path>
                <path d="M49.3509434,2.24101562 L24.709434,22.6121094 L18.8188679,13.3855469 C27.2226415,6.47929687 37.8188679,2.28789062 49.3509434,2.24101562 L49.3509434,2.24101562 Z" id="Shape" fill="#44967F" sketch:type="MSShapeGroup"></path>
                <path d="M49.5584906,2.23710937 C49.490566,2.23710937 49.4188679,2.23710937 49.3509434,2.24101562 L24.709434,22.6121094 L24.7075472,22.6089844 C24.7011321,22.6148437 24.6958491,22.6210937 24.689434,22.6265625 L24.6901887,22.6277344 L24.709434,22.6546875 L37.0826415,42.0804687 L37.1358491,42.1625 L49.6528302,2.23671875 L49.5584906,2.23671875 L49.5584906,2.23710937 Z" id="Shape" fill="#22BC9E" sketch:type="MSShapeGroup"></path>
                <path d="M62.7207547,42.0808594 L62.5962264,41.9832031 L62.5849057,41.971875 C61.2041509,40.4011719 59.5584906,39.0925781 57.7173585,38.1121094 L57.709434,38.1082031 C55.3701887,36.8738281 52.7245283,36.1746094 49.9207547,36.1746094 C47.1320755,36.1746094 44.5018868,36.8664063 42.1769811,38.0847656 C40.2981132,39.0773438 38.6222642,40.409375 37.2264151,42.0109375 L37.1358491,42.08125 L49.6490566,2.08125 L49.6528302,2.06953125 L49.6603774,2.0890625 L62.7207547,42.0808594 L62.7207547,42.0808594 Z" id="Shape" fill="#44967F" sketch:type="MSShapeGroup"></path>
                <path d="M74.6641509,22.4910156 L62.7207547,42.0808594 L49.6603774,2.08867187 L74.6641509,22.4910156 Z" id="Shape" fill="#56C6AF" sketch:type="MSShapeGroup"></path>
                <path id="Shape" fill="#22BC9E" sketch:type="MSShapeGroup"></path>
                <path d="M41.6679245,69.4246094 L13.1433962,69.4246094 L10.4339623,63.2410156 L37.1358491,42.0808594 L37.2264151,42.0105469 C37.2071698,42.0339844 37.1849057,42.0570312 37.1660377,42.0808594 C34.4490566,45.2171875 32.8,49.3625 32.8,53.9011719 C32.8,60.5886719 36.3811321,66.4085937 41.6679245,69.4246094 L41.6679245,69.4246094 Z" id="Shape" fill="#22BC9E" sketch:type="MSShapeGroup"></path>
                <path id="Shape" sketch:type="MSShapeGroup" d="M2.23396226,69.7371094 L2.13584906,69.8152344"></path>
                <path d="M89.3056604,63.1433594 L86.5018868,69.4246094 L58.1773585,69.4246094 C63.4603774,66.4085937 67.045283,60.5886719 67.045283,53.9011719 C67.045283,49.3582031 65.3962264,45.2136719 62.6792453,42.0808594 C62.6532075,42.0496094 62.6264151,42.0144531 62.5962264,41.9832031 L62.7207547,42.0808594 L89.3056604,63.1433594 L89.3056604,63.1433594 Z" id="Shape" fill="#56C6AF" sketch:type="MSShapeGroup"></path>
                <path id="Shape" fill="#22BC9E" sketch:type="MSShapeGroup"></path>
                <path id="Shape" fill="#22BC9E" sketch:type="MSShapeGroup"></path>
                <path d="M97.2339623,69.4246094 L86.5018868,69.4246094 L89.3056604,63.1433594 L97.2339623,69.4246094 Z" id="Shape" fill="#22BC9E" sketch:type="MSShapeGroup"></path>
                <path d="M10.4339623,63.2410156 L2.62981132,69.4246094 L2.1354717,69.4246094 C0.648679245,64.5222656 -0.151698113,59.3074219 -0.151698113,53.9011719 C-0.151698113,49.8347656 0.301132075,45.878125 1.15811321,42.0808594 L10.4339623,63.2410156 L10.4339623,63.2410156 Z" id="Shape" fill="#22BC9E" sketch:type="MSShapeGroup"></path>
                <path d="M13.1433962,69.4246094 L2.63018868,69.4246094 L10.4339623,63.2410156 L13.1433962,69.4246094 Z" id="Shape" fill="#44967F" sketch:type="MSShapeGroup"></path>
                <path d="M80.5283019,12.8742187 L74.6641509,22.4910156 L49.6603774,2.08867187 L49.6528302,2.06914062 C49.7433962,2.06523437 49.8301887,2.06523437 49.9207547,2.06523437 C61.4490566,2.06523437 72.0679245,6.09648437 80.5283019,12.8742187 L80.5283019,12.8742187 Z" id="Shape" fill="#22BC9E" sketch:type="MSShapeGroup"></path>
                <path id="Shape" sketch:type="MSShapeGroup" d="M98.690566,42.0921875 L98.6754717,42.0808594"></path>
                <path d="M24.709434,22.6121094 L24.6901887,22.6277344 L1.15849057,42.0808594 C3.76188679,30.5300781 10.0943396,20.4636719 18.7735849,13.3148437 L18.8188679,13.3855469 L24.709434,22.6121094 L24.709434,22.6121094 Z" id="Shape" fill="#2B7C6B" sketch:type="MSShapeGroup"></path>
                <path d="M49.3509434,2.24101562 L49.5584906,2.06914062 L52.0754717,-0.008984375" id="Shape" sketch:type="MSShapeGroup"></path>
            </g>
        </g>
    </g>
</svg>