<?xml version="1.0" encoding="UTF-8"?>
<svg width="288px" height="337px" viewBox="0 0 288 337" version="1.1" xmlns="http://www.w3.org/2000/svg" xmlns:xlink="http://www.w3.org/1999/xlink">
    <!-- Generator: Sketch 63.1 (92452) - https://sketch.com -->
    <title>未命名</title>
    <desc>Created with Sketch.</desc>
    <g id="页面-1" stroke="none" stroke-width="1" fill="none" fill-rule="evenodd">
        <g id="shuosc_logo" transform="translate(5.000000, 0.000000)">
            <path d="M73,274 C41.4052108,256.734293 17.093235,227.330797 6,191.85787 L7.09885817,191 L36.2552289,191 L73,274 L73,274 Z" id="Shape" fill="#2B7C6B" fill-rule="nonzero"></path>
            <path d="M6.50566038,191.6875 L7.49433962,191.6875 L6.70188678,192.3125 C6.63396226,192.109375 6.56603774,191.898437 6.50566038,191.6875 L6.50566038,191.6875 Z" id="Shape" fill="#56C6AF" fill-rule="nonzero"></path>
            <path d="M116,191.608723 L73.265622,274 C73.056851,273.892139 72.84808,273.774665 72.6497476,273.65826 L36,191 L114.904996,191 C115.258863,191.213587 115.634651,191.417563 116,191.608723 L116,191.608723 Z" id="Shape" fill="#44967F" fill-rule="nonzero"></path>
            <path d="M269,191.001064 C257.992798,227.01445 233.298444,256.812761 201.166005,274 L201,273.669026 L238.186268,191 L269,191 L269,191.001064 Z" id="Shape" fill="#44967F" fill-rule="nonzero"></path>
            <path d="M238,191 L200.583289,274 L158,191.886843 C158.553301,191.598352 159.097206,191.309861 159.639023,191 L238,191 L238,191 Z" id="Shape" fill="#2B7C6B" fill-rule="nonzero"></path>
            <path d="M275,148.403782 C275,163.249217 272.829939,177.558717 268.795877,191 L267.506124,191 L246,173.764288 L271.457273,116 C273.771664,126.408955 275,137.255234 275,148.403782 L275,148.403782 Z" id="Shape" fill="#44967F" fill-rule="nonzero"></path>
            <path d="M271,116.030656 L245.169849,173 L172,116 L270.989614,116 C270.989614,116.010571 270.989614,116.021142 271,116.030656 L271,116.030656 Z" id="Shape" fill="#22BC9E" fill-rule="nonzero"></path>
            <polygon id="Shape" fill="#56C6AF" fill-rule="nonzero" points="102 116 28.5235998 175 3 116"></polygon>
            <path d="M271,116 L270.969934,116 L205,61.6706655 L221.111469,35 C245.723448,54.8889779 263.701111,83.2951491 271,116 L271,116 Z" id="Shape" fill="#2B7C6B" fill-rule="nonzero"></path>
            <polygon id="Shape" fill="#44967F" fill-rule="nonzero" points="271 116 172 116 204.885705 62"></polygon>
            <polygon id="Shape" fill="#44967F" fill-rule="nonzero" points="102 116 3 116 67.8058528 62"></polygon>
            <path d="M136,7 L68.2061551,63 L52,37.6362416 C75.1205043,18.6510067 104.272896,7.12885906 136,7 L136,7 Z" id="Shape" fill="#44967F" fill-rule="nonzero"></path>
            <path d="M135.74302,6 C135.557994,6 135.362689,6 135.177664,6.01183836 L68.0544798,62.1364838 L68.0493401,62.1278741 C68.0318655,62.1440171 68.0174747,62.1612365 68,62.1763037 L68.0020558,62.1795324 L68.0544798,62.2537912 L101.758953,115.773995 L101.90389,116 L136,6 L135.74302,6 L135.74302,6 Z" id="Shape" fill="#22BC9E" fill-rule="nonzero"></path>
            <path d="M172,116 L171.659292,115.73045 L171.628319,115.699307 C167.85059,111.381138 163.348083,107.783559 158.310767,105.08806 L158.289086,105.077321 C151.888938,101.683784 144.650442,99.7614957 136.979351,99.7614957 C129.349558,99.7614957 122.153392,101.66338 115.792478,105.012887 C110.651917,107.741677 106.066814,111.40369 102.247788,115.806697 L102,116 L136.235988,6.03221712 L136.246313,6 L136.266962,6.05369521 L172,116 L172,116 Z" id="Shape" fill="#44967F" fill-rule="nonzero"></path>
            <polygon id="Shape" fill="#56C6AF" fill-rule="nonzero" points="205 62.1174056 172.041201 116 136 6"></polygon>
            <g id="Shape"></g>
            <path d="M115,191 L36.4601907,191 L29,174.082787 L102.521324,116.192362 L102.77069,116 C102.7177,116.064121 102.656397,116.127173 102.604446,116.192362 C95.1234747,124.772798 90.5829407,136.113636 90.5829407,148.530636 C90.5829407,166.826446 100.443277,182.748717 115,191 L115,191 Z" id="Shape" fill="#22BC9E" fill-rule="nonzero"></path>
            <line x1="6.0981132" y1="191.921875" x2="5.9018868" y2="192.078125" id="Shape"></line>
            <path d="M247,173.83274 L239.253849,191 L161,191 C175.595709,182.756939 185.499939,166.850534 185.499939,148.572954 C185.499939,136.156584 180.943993,124.829182 173.437629,116.266904 C173.365693,116.181495 173.291672,116.085409 173.208268,116 L173.552309,116.266904 L247,173.83274 L247,173.83274 Z" id="Shape" fill="#56C6AF" fill-rule="nonzero"></path>
            <g id="Shape"></g>
            <g id="Shape"></g>
            <polygon id="Shape" fill="#22BC9E" fill-rule="nonzero" points="267 191 238 191 245.576301 173"></polygon>
            <path d="M29,174.039286 L7.62009836,191 L6.26582773,191 C2.19267788,177.553571 0,163.25 0,148.421429 C0,137.267857 1.24055325,126.415357 3.58830029,116 L29,174.039286 L29,174.039286 Z" id="Shape" fill="#22BC9E" fill-rule="nonzero"></path>
            <polygon id="Shape" fill="#44967F" fill-rule="nonzero" points="36 191 7 191 28.5262026 173"></polygon>
            <path d="M221,35.6342703 L205.045954,62 L137.020533,6.06425703 L137,6.0107095 C137.246394,6 137.482523,6 137.728917,6 C169.092887,6 197.982645,17.0522088 221,35.6342703 L221,35.6342703 Z" id="Shape" fill="#22BC9E" fill-rule="nonzero"></path>
            <line x1="272.015094" y1="116.011328" x2="271.984906" y2="115.988672" id="Shape"></line>
            <path d="M68,61.8562487 L67.9468835,61.8997028 L3,116 C10.1853068,83.8765904 27.6627142,55.8813163 51.6172087,36 L51.7421886,36.1966298 L68,61.8562487 L68,61.8562487 Z" id="Shape" fill="#2B7C6B" fill-rule="nonzero"></path>
            <polyline id="Shape" points="136 6 136.533241 5.54166667 143 0"></polyline>
        </g>
        <text id="上海大学开源社区" font-family="HiraginoSansGB-W3, Hiragino Sans GB" font-size="36" font-weight="300" fill="#398673">
            <tspan x="0" y="333">上海大学开源社区</tspan>
        </text>
    </g>
</svg>