<?xml version="1.0" encoding="utf-8"?>
<!-- Generator: Adobe Illustrator 21.0.0, SVG Export Plug-In . SVG Version: 6.00 Build 0)  -->
<svg version="1.1" id="图层_1" xmlns:sketch="http://www.bohemiancoding.com/sketch/ns"
	 xmlns="http://www.w3.org/2000/svg" xmlns:xlink="http://www.w3.org/1999/xlink" x="0px" y="0px" viewBox="0 0 101 98"
	 style="enable-background:new 0 0 101 98;" xml:space="preserve">
<style type="text/css">
	.st0{fill:#2B7C6B;}
	.st1{fill:#56C6AF;}
	.st2{fill:#44967F;}
	.st3{fill:#22BC9E;}
	.st4{fill:none;}
</style>
<title>Logo 2</title>
<desc>Created with Sketch.</desc>
<g id="Admin-Panel" sketch:type="MSPage">
	<g id="Dashboard---Overview" transform="translate(-274.000000, -198.000000)" sketch:type="MSArtboardGroup">
		<g id="Logo-2" transform="translate(275.000000, 196.000000)" sketch:type="MSLayerGroup">
			<path id="Shape" sketch:type="MSShapeGroup" class="st0" d="M54.8,222.5c-23.6-14-41.7-38-50-66.8l0.8-0.7h21.7L54.8,222.5
				L54.8,222.5z"/>
			<path id="Shape_1_" sketch:type="MSShapeGroup" class="st1" d="M4.6,155h1l-0.8,0.7C4.7,155.5,4.6,155.2,4.6,155L4.6,155z"/>
			<path id="Shape_2_" sketch:type="MSShapeGroup" class="st2" d="M87.2,155.5l-32,67.3c-0.2-0.1-0.3-0.2-0.5-0.3L27.3,155h59
				C86.6,155.2,86.9,155.3,87.2,155.5L87.2,155.5z"/>
			<path id="Shape_3_" sketch:type="MSShapeGroup" class="st2" d="M202.3,155c-8.3,29.5-26.9,53.9-51,68l-0.1-0.3l28-67.7L202.3,155
				L202.3,155z"/>
			<path id="Shape_4_" sketch:type="MSShapeGroup" class="st0" d="M179.1,155l-28,67.7l-31.8-67c0.4-0.2,0.8-0.5,1.2-0.7H179.1
				L179.1,155z"/>
			<path id="Shape_5_" sketch:type="MSShapeGroup" class="st2" d="M207,120.3c0,12.1-1.7,23.7-4.7,34.7h-1l-16.4-14l19.4-47
				C206.1,102.4,207,111.3,207,120.3L207,120.3z"/>
			<path id="Shape_6_" sketch:type="MSShapeGroup" class="st3" d="M204.3,94l-19.4,47l-55-47L204.3,94C204.3,94,204.3,94,204.3,94
				L204.3,94z"/>
			<path id="Shape_7_" sketch:type="MSShapeGroup" class="st1" d="M77,94l-55.2,47.2L2.6,94H77z"/>
			<path id="Shape_8_" sketch:type="MSShapeGroup" class="st0" d="M204.3,94L204.3,94l-49.7-43.7l12.1-21.5
				C185.3,44.8,198.8,67.6,204.3,94L204.3,94z"/>
			<path id="Shape_9_" sketch:type="MSShapeGroup" class="st2" d="M204.3,94h-74.4l24.7-43.7L204.3,94z"/>
			<path id="Shape_10_" sketch:type="MSShapeGroup" class="st2" d="M77,94H2.6l48.7-43.5L77,94z"/>
			<path id="Shape_11_" sketch:type="MSShapeGroup" class="st2" d="M102.2,5l-51,45.5L39.1,29.9C56.5,14.5,78.4,5.1,102.2,5L102.2,5
				z"/>
			<path id="Shape_12_" sketch:type="MSShapeGroup" class="st3" d="M102.7,5c-0.1,0-0.3,0-0.4,0l-51,45.5l0,0c0,0,0,0,0,0l0,0l0,0.1
				l25.6,43.4l0.1,0.2L102.9,5L102.7,5L102.7,5z"/>
			<path id="Shape_13_" sketch:type="MSShapeGroup" class="st2" d="M129.9,94l-0.3-0.2l0,0c-2.9-3.5-6.3-6.4-10.1-8.6l0,0
				c-4.8-2.8-10.3-4.3-16.1-4.3c-5.8,0-11.2,1.5-16,4.3c-3.9,2.2-7.4,5.2-10.2,8.8L77,94l25.9-89.3l0,0l0,0L129.9,94L129.9,94z"/>
			<path id="Shape_14_" sketch:type="MSShapeGroup" class="st1" d="M154.6,50.2L129.9,94l-27-89.3L154.6,50.2z"/>
			<path id="Shape_15_" sketch:type="MSShapeGroup" class="st1" d="M0.2,0"/>
			<path id="Shape_16_" sketch:type="MSShapeGroup" class="st3" d="M86.4,155h-59l-5.6-13.8L77,94l0.2-0.2c0,0.1-0.1,0.1-0.1,0.2
				c-5.6,7-9,16.3-9,26.4C68,135.3,75.4,148.3,86.4,155L86.4,155z"/>
			<path id="Shape_17_" sketch:type="MSShapeGroup" class="st4" d="M4.8,155.7l-0.2,0.2"/>
			<path id="Shape_18_" sketch:type="MSShapeGroup" class="st1" d="M184.9,141l-5.8,14h-58.6c10.9-6.7,18.3-19.7,18.3-34.7
				c0-10.1-3.4-19.4-9-26.4c-0.1-0.1-0.1-0.1-0.2-0.2l0.3,0.2L184.9,141L184.9,141z"/>
			<path id="Shape_19_" sketch:type="MSShapeGroup" class="st1" d="M0.2,0"/>
			<path id="Shape_20_" sketch:type="MSShapeGroup" class="st1" d="M0.2,0"/>
			<path id="Shape_21_" sketch:type="MSShapeGroup" class="st3" d="M201.3,155h-22.2l5.8-14L201.3,155z"/>
			<path id="Shape_22_" sketch:type="MSShapeGroup" class="st3" d="M21.7,141.2L5.6,155h-1c-3.1-10.9-4.7-22.6-4.7-34.7
				c0-9.1,0.9-17.9,2.7-26.4L21.7,141.2L21.7,141.2z"/>
			<path id="Shape_23_" sketch:type="MSShapeGroup" class="st2" d="M27.3,155H5.6l16.1-13.8L27.3,155z"/>
			<path id="Shape_24_" sketch:type="MSShapeGroup" class="st3" d="M166.7,28.8l-12.1,21.5L102.9,4.7l0,0c0.2,0,0.4,0,0.6,0
				C127.3,4.6,149.2,13.6,166.7,28.8L166.7,28.8z"/>
			<path id="Shape_25_" sketch:type="MSShapeGroup" class="st4" d="M204.3,94L204.3,94"/>
			<path id="Shape_26_" sketch:type="MSShapeGroup" class="st0" d="M51.3,50.5L51.3,50.5L2.6,94C7.9,68.2,21,45.7,39,29.7l0.1,0.2
				L51.3,50.5L51.3,50.5z"/>
			<path id="Shape_27_" sketch:type="MSShapeGroup" class="st4" d="M102.2,5l0.4-0.4l5.2-4.6"/>
		</g>
	</g>
</g>
</svg>
